<svg width="24" height="24" viewBox="0 0 24 24" fill="none" xmlns="http://www.w3.org/2000/svg">
<path d="M3.74998 4.6875H20.25C20.5981 4.6875 20.9319 4.82578 21.1781 5.07192C21.4242 5.31806 21.5625 5.6519 21.5625 6V21C21.5638 21.2502 21.493 21.4956 21.3585 21.7066C21.224 21.9176 21.0315 22.0853 20.804 22.1897C20.6304 22.2702 20.4414 22.3121 20.25 22.3125C19.9408 22.3127 19.6416 22.2027 19.4062 22.0022L19.3978 21.9947L16.3847 19.3538C16.3509 19.3267 16.3089 19.3121 16.2656 19.3125H3.74998C3.40188 19.3125 3.06805 19.1742 2.8219 18.9281C2.57576 18.6819 2.43748 18.3481 2.43748 18V6C2.43748 5.6519 2.57576 5.31806 2.8219 5.07192C3.06805 4.82578 3.40188 4.6875 3.74998 4.6875ZM3.56248 18C3.56248 18.0497 3.58224 18.0974 3.6174 18.1326C3.65256 18.1677 3.70025 18.1875 3.74998 18.1875H16.2656C16.5744 18.1879 16.8731 18.2971 17.1094 18.4959L17.1178 18.5034L20.1328 21.1444C20.1602 21.1663 20.1933 21.1802 20.2282 21.1842C20.2631 21.1883 20.2985 21.1825 20.3303 21.1675C20.3621 21.1524 20.3889 21.1287 20.4079 21.0991C20.4269 21.0695 20.4371 21.0352 20.4375 21V6C20.4375 5.95027 20.4177 5.90258 20.3826 5.86742C20.3474 5.83225 20.2997 5.8125 20.25 5.8125H3.74998C3.70025 5.8125 3.65256 5.83225 3.6174 5.86742C3.58224 5.90258 3.56248 5.95027 3.56248 6V18ZM11.0625 12C11.0625 12.1854 11.1175 12.3667 11.2205 12.5208C11.3235 12.675 11.4699 12.7952 11.6412 12.8661C11.8125 12.9371 12.001 12.9557 12.1829 12.9195C12.3647 12.8833 12.5318 12.794 12.6629 12.6629C12.794 12.5318 12.8833 12.3648 12.9195 12.1829C12.9556 12.001 12.9371 11.8125 12.8661 11.6412C12.7952 11.4699 12.675 11.3235 12.5208 11.2205C12.3667 11.1175 12.1854 11.0625 12 11.0625C11.7513 11.0625 11.5129 11.1613 11.3371 11.3371C11.1613 11.5129 11.0625 11.7514 11.0625 12ZM15.1875 12C15.1875 12.1854 15.2425 12.3667 15.3455 12.5208C15.4485 12.675 15.5949 12.7952 15.7662 12.8661C15.9375 12.9371 16.126 12.9557 16.3079 12.9195C16.4897 12.8833 16.6568 12.794 16.7879 12.6629C16.919 12.5318 17.0083 12.3648 17.0445 12.1829C17.0806 12.001 17.0621 11.8125 16.9911 11.6412C16.9202 11.4699 16.8 11.3235 16.6458 11.2205C16.4917 11.1175 16.3104 11.0625 16.125 11.0625C15.8763 11.0625 15.6379 11.1613 15.4621 11.3371C15.2863 11.5129 15.1875 11.7514 15.1875 12ZM6.93748 12C6.93748 12.1854 6.99246 12.3667 7.09548 12.5208C7.19849 12.675 7.34491 12.7952 7.51622 12.8661C7.68752 12.9371 7.87602 12.9557 8.05788 12.9195C8.23974 12.8833 8.40678 12.794 8.53789 12.6629C8.66901 12.5318 8.75829 12.3648 8.79447 12.1829C8.83064 12.001 8.81208 11.8125 8.74112 11.6412C8.67016 11.4699 8.55 11.3235 8.39583 11.2205C8.24166 11.1175 8.0604 11.0625 7.87498 11.0625C7.62634 11.0625 7.38788 11.1613 7.21207 11.3371C7.03625 11.5129 6.93748 11.7514 6.93748 12Z" fill="#0A0A0A"/>
</svg>
