<svg width="24" height="24" viewBox="0 0 24 24" fill="none" xmlns="http://www.w3.org/2000/svg">
<path d="M19.5 21V16" stroke="#0A0A0A" stroke-width="1.5" stroke-linecap="round" stroke-linejoin="round"/>
<path d="M17 18.5H22" stroke="#0A0A0A" stroke-width="1.5" stroke-linecap="round" stroke-linejoin="round"/>
<path d="M13.0005 18H7.88867C6.78367 18 5.88867 17.105 5.88867 16V5C5.88867 3.895 6.78367 3 7.88867 3H18.8887C19.9937 3 20.8887 3.895 20.8887 5L21.0005 13" stroke="#0A0A0A" stroke-width="1.5" stroke-linecap="round" stroke-linejoin="round"/>
<path d="M21 12.9968H17.566C17.215 12.9968 16.889 13.1808 16.709 13.4828L16.292 14.1788C16.111 14.4798 15.786 14.6648 15.435 14.6648H11.567C11.216 14.6648 10.89 14.4808 10.71 14.1788L10.293 13.4828C10.111 13.1808 9.785 12.9968 9.434 12.9968H6" stroke="#0A0A0A" stroke-width="1.5" stroke-linecap="round" stroke-linejoin="round"/>
<path d="M3 6.99683V18.9968C3 20.1018 3.895 20.9968 5 20.9968L11 21.0007" stroke="#0A0A0A" stroke-width="1.5" stroke-linecap="round" stroke-linejoin="round"/>
</svg>
