<svg width="24" height="24" viewBox="0 0 24 24" fill="none" xmlns="http://www.w3.org/2000/svg">
<path fill-rule="evenodd" clip-rule="evenodd" d="M8 18H19C20.105 18 21 17.105 21 16V5C21 3.895 20.105 3 19 3H8C6.895 3 6 3.895 6 5V16C6 17.105 6.895 18 8 18Z" stroke="#0A0A0A" stroke-width="1.5" stroke-linecap="round" stroke-linejoin="round"/>
<path d="M21 13H17.566C17.215 13 16.889 13.184 16.709 13.486L16.292 14.182C16.111 14.483 15.786 14.668 15.435 14.668H11.567C11.216 14.668 10.89 14.484 10.71 14.182L10.293 13.486C10.111 13.184 9.785 13 9.434 13H6" stroke="#0A0A0A" stroke-width="1.5" stroke-linecap="round" stroke-linejoin="round"/>
<path d="M3 7V19C3 20.105 3.895 21 5 21H17" stroke="#0A0A0A" stroke-width="1.5" stroke-linecap="round" stroke-linejoin="round"/>
</svg>
