<svg width="16" height="17" viewBox="0 0 16 17" fill="none" xmlns="http://www.w3.org/2000/svg">
<path d="M11.5 4.66406H2.5C2.40054 4.66406 2.30516 4.70357 2.23483 4.7739C2.16451 4.84422 2.125 4.93961 2.125 5.03906V14.0391C2.125 14.1385 2.16451 14.2339 2.23483 14.3042C2.30516 14.3746 2.40054 14.4141 2.5 14.4141H11.5C11.5995 14.4141 11.6948 14.3746 11.7652 14.3042C11.8355 14.2339 11.875 14.1385 11.875 14.0391V5.03906C11.875 4.93961 11.8355 4.84422 11.7652 4.7739C11.6948 4.70357 11.5995 4.66406 11.5 4.66406ZM11.125 13.6641H2.875V5.41406H11.125V13.6641ZM13.875 3.03906V12.0391C13.875 12.1385 13.8355 12.2339 13.7652 12.3042C13.6948 12.3746 13.5995 12.4141 13.5 12.4141C13.4005 12.4141 13.3052 12.3746 13.2348 12.3042C13.1645 12.2339 13.125 12.1385 13.125 12.0391V3.41406H4.5C4.40054 3.41406 4.30516 3.37455 4.23484 3.30423C4.16451 3.2339 4.125 3.13852 4.125 3.03906C4.125 2.93961 4.16451 2.84422 4.23484 2.7739C4.30516 2.70357 4.40054 2.66406 4.5 2.66406H13.5C13.5995 2.66406 13.6948 2.70357 13.7652 2.7739C13.8355 2.84422 13.875 2.93961 13.875 3.03906Z" fill="#7A7A7A"/>
</svg>
