<svg width="24" height="24" viewBox="0 0 24 24" fill="none" xmlns="http://www.w3.org/2000/svg">
<path d="M18.5043 12.0002C18.5043 12.2765 18.2804 12.5004 18.0041 12.5004C17.7279 12.5004 17.5039 12.2765 17.5039 12.0002C17.5039 11.724 17.7279 11.5 18.0041 11.5C18.2804 11.5 18.5043 11.724 18.5043 12.0002" stroke="#0A0A0A" stroke-width="1.5" stroke-linecap="round" stroke-linejoin="round"/>
<path d="M12.5004 12.0002C12.5004 12.2765 12.2765 12.5004 12.0002 12.5004C11.724 12.5004 11.5 12.2765 11.5 12.0002C11.5 11.724 11.724 11.5 12.0002 11.5C12.2765 11.5 12.5004 11.724 12.5004 12.0002" stroke="#0A0A0A" stroke-width="1.5" stroke-linecap="round" stroke-linejoin="round"/>
<path d="M6.49846 12.0002C6.49846 12.2765 6.27451 12.5004 5.99826 12.5004C5.722 12.5004 5.49805 12.2765 5.49805 12.0002C5.49805 11.724 5.722 11.5 5.99826 11.5C6.27451 11.5 6.49846 11.724 6.49846 12.0002" stroke="#0A0A0A" stroke-width="1.5" stroke-linecap="round" stroke-linejoin="round"/>
</svg>
