<svg width="16" height="16" viewBox="0 0 16 16" fill="none" xmlns="http://www.w3.org/2000/svg">
<path fill-rule="evenodd" clip-rule="evenodd" d="M11.0763 2.13131L13.8694 4.92444C13.9506 5.00569 14.0151 5.10215 14.0591 5.20832C14.1031 5.31449 14.1257 5.42827 14.1257 5.54319C14.1257 5.6581 14.1031 5.77189 14.0591 5.87806C14.0151 5.98422 13.9506 6.08069 13.8694 6.16194L6.48603 13.6282L5.98919 14.1251H2.75C2.51794 14.1251 2.29538 14.0329 2.13128 13.8688C1.96719 13.7047 1.875 13.4821 1.875 13.2501V10.4569C1.87479 10.342 1.89732 10.2282 1.9413 10.122C1.98528 10.0158 2.04984 9.91932 2.13125 9.83819L9.83875 2.13131C9.92 2.05005 10.0165 1.98559 10.1226 1.94161C10.2288 1.89764 10.3426 1.875 10.4575 1.875C10.5724 1.875 10.6862 1.89764 10.7924 1.94161C10.8985 1.98559 10.995 2.05005 11.0763 2.13131ZM2.75 13.3751H5.595L11.22 7.75006L8.25 4.78069L2.66188 10.3688C2.6384 10.3921 2.62514 10.4238 2.625 10.4569V13.2501C2.625 13.2832 2.63817 13.315 2.66161 13.3385C2.68506 13.3619 2.71685 13.3751 2.75 13.3751ZM11.75 7.22006L13.3388 5.63131C13.3504 5.6197 13.3596 5.60592 13.3659 5.59074C13.3722 5.57557 13.3754 5.5593 13.3754 5.54288C13.3754 5.52645 13.3722 5.51018 13.3659 5.49501C13.3596 5.47983 13.3504 5.46605 13.3388 5.45444L10.5456 2.66194C10.534 2.65032 10.5202 2.6411 10.5051 2.63481C10.4899 2.62852 10.4736 2.62528 10.4572 2.62528C10.4408 2.62528 10.4245 2.62852 10.4093 2.63481C10.3941 2.6411 10.3804 2.65032 10.3688 2.66194L8.78063 4.25006L11.75 7.22006Z" fill="#0A0A0A"/>
</svg>
