<svg width="24" height="24" viewBox="0 0 24 24" fill="none" xmlns="http://www.w3.org/2000/svg">
<g clip-path="url(#clip0_1084_79832)">
<path d="M14.5567 13.557C14.3234 13.9504 14.0032 14.2853 13.6206 14.5361C13.2381 14.7869 12.8033 14.9469 12.3494 15.004C11.8956 15.061 11.4347 15.0136 11.002 14.8653C10.5693 14.717 10.1762 14.4717 9.85274 14.1483C9.5293 13.8248 9.28406 13.4318 9.13576 12.999C8.98746 12.5663 8.94002 12.1054 8.99707 11.6516C9.05412 11.1977 9.21414 10.7629 9.46492 10.3804C9.7157 9.99784 10.0506 9.67767 10.444 9.44434" stroke="#0A0A0A" stroke-width="1.5" stroke-linecap="round" stroke-linejoin="round"/>
<path d="M17.9941 16.994C16.27 18.3017 14.1639 19.0065 12 18.9999C10.2421 19.0312 8.51026 18.5716 6.99917 17.6728C5.48807 16.774 4.25759 15.4716 3.44598 13.9119C3.1526 13.3173 3 12.663 3 11.9999C3 11.3368 3.1526 10.6826 3.44598 10.0879C4.27389 8.43924 5.59364 7.08854 7.2227 6.22266" stroke="#0A0A0A" stroke-width="1.5" stroke-linecap="round" stroke-linejoin="round"/>
<path d="M20.424 14.1332C20.4641 14.0572 20.5163 13.989 20.5542 13.9115C20.8476 13.3169 21.0002 12.6626 21.0002 11.9995C21.0002 11.3364 20.8476 10.6822 20.5542 10.0875C19.7426 8.52786 18.5121 7.22544 17.001 6.32663C15.4899 5.42782 13.7581 4.96824 12.0002 4.99955C11.7754 4.99955 11.5569 5.02955 11.335 5.04417" stroke="#0A0A0A" stroke-width="1.5" stroke-linecap="round" stroke-linejoin="round"/>
<path d="M21 20L4 3" stroke="#0A0A0A" stroke-width="1.5" stroke-linecap="round" stroke-linejoin="round"/>
</g>
<defs>
<clipPath id="clip0_1084_79832">
<rect width="24" height="24" fill="white"/>
</clipPath>
</defs>
</svg>
