<svg width="24" height="24" viewBox="0 0 24 24" fill="none" xmlns="http://www.w3.org/2000/svg">
<path d="M9.38467 17.3646L8.47008 16.4436L12.1414 12.7787L11.2204 11.8576L7.55548 15.529L6.63439 14.6144L10.3058 10.943L9.38467 10.022L5.25925 14.1538C4.89484 14.5187 4.69015 15.0133 4.69015 15.529C4.69015 16.0446 4.89484 16.5392 5.25925 16.9041L5.7198 17.3646L1.58789 21.49L2.50897 22.4111L6.63439 18.2792L7.09493 18.7398C7.4598 19.1042 7.9544 19.3089 8.47008 19.3089C8.98575 19.3089 9.48035 19.1042 9.84521 18.7398L13.9771 14.6144L13.056 13.6933L9.38467 17.3646Z" fill="black"/>
<path d="M16.8143 3.45947C19.5603 3.45947 21.4016 6.03676 21.4016 8.43675C21.4016 13.3085 13.757 17.2972 13.6178 17.2972C13.4786 17.2972 5.83398 13.3085 5.83398 8.43675C5.83398 6.03676 7.67529 3.45947 10.4212 3.45947C11.991 3.45947 13.0219 4.24217 13.6178 4.93925C14.2137 4.24217 15.2446 3.45947 16.8143 3.45947Z" fill="#E5855D" stroke="#0A0A0A" stroke-width="1.5" stroke-linecap="round" stroke-linejoin="round"/>
</svg>
