<svg width="24" height="24" viewBox="0 0 24 24" fill="none" xmlns="http://www.w3.org/2000/svg">
<path d="M9.38663 17.3646L8.47203 16.4436L12.1434 12.7787L11.2223 11.8576L7.55743 15.529L6.63635 14.6144L10.3077 10.943L9.38663 10.022L5.26121 14.1538C4.89679 14.5187 4.69211 15.0133 4.69211 15.529C4.69211 16.0446 4.89679 16.5392 5.26121 16.9041L5.72175 17.3646L1.58984 21.49L2.51093 22.4111L6.63635 18.2792L7.09689 18.7398C7.46176 19.1042 7.95635 19.3089 8.47203 19.3089C8.98771 19.3089 9.4823 19.1042 9.84717 18.7398L13.9791 14.6144L13.058 13.6933L9.38663 17.3646Z" fill="black"/>
<path d="M16.8163 3.45947C19.5623 3.45947 21.4036 6.03676 21.4036 8.43675C21.4036 13.3085 13.759 17.2972 13.6197 17.2972C13.4805 17.2972 5.83594 13.3085 5.83594 8.43675C5.83594 6.03676 7.67724 3.45947 10.4232 3.45947C11.9929 3.45947 13.0239 4.24217 13.6197 4.93925C14.2156 4.24217 15.2466 3.45947 16.8163 3.45947Z" stroke="#0A0A0A" stroke-width="1.5" stroke-linecap="round" stroke-linejoin="round"/>
</svg>
