<svg width="24" height="24" viewBox="0 0 24 24" fill="none" xmlns="http://www.w3.org/2000/svg">
<path d="M22.5 19.5001H21V10.8329C21 10.6253 20.957 10.42 20.8735 10.2299C20.7901 10.0398 20.6681 9.86907 20.5153 9.72855L13.0153 2.6523C13.0116 2.6491 13.0082 2.64566 13.005 2.64199C12.7289 2.39086 12.369 2.25171 11.9958 2.25171C11.6225 2.25171 11.2627 2.39086 10.9866 2.64199L10.9763 2.6523L3.48469 9.72855C3.33187 9.86907 3.20989 10.0398 3.12646 10.2299C3.04303 10.42 2.99997 10.6253 3 10.8329V19.5001H1.5C1.30109 19.5001 1.11032 19.5791 0.96967 19.7198C0.829018 19.8604 0.75 20.0512 0.75 20.2501C0.75 20.449 0.829018 20.6398 0.96967 20.7804C1.11032 20.9211 1.30109 21.0001 1.5 21.0001H22.5C22.6989 21.0001 22.8897 20.9211 23.0303 20.7804C23.171 20.6398 23.25 20.449 23.25 20.2501C23.25 20.0512 23.171 19.8604 23.0303 19.7198C22.8897 19.5791 22.6989 19.5001 22.5 19.5001ZM4.5 10.8329L4.51031 10.8236L12 3.75011L19.4906 10.8217L19.5009 10.8311V19.5001H15V15.0001C15 14.6023 14.842 14.2208 14.5607 13.9395C14.2794 13.6582 13.8978 13.5001 13.5 13.5001H10.5C10.1022 13.5001 9.72064 13.6582 9.43934 13.9395C9.15804 14.2208 9 14.6023 9 15.0001V19.5001H4.5V10.8329ZM13.5 19.5001H10.5V15.0001H13.5V19.5001Z" fill="#0A0A0A"/>
</svg>
