<svg width="220" height="42" viewBox="0 0 220 42" fill="none" xmlns="http://www.w3.org/2000/svg">
<path d="M33.6776 20.3649C33.8426 23.0892 32.0276 25.6773 30.2676 26.7943C29.0026 27.6116 27.6001 28.1837 26.0876 28.1837C23.6951 28.2109 21.7701 27.2574 20.4776 25.1869C19.8451 24.1517 19.6526 23.0074 19.7901 21.8087C20.0651 19.5203 21.0826 17.586 22.6226 15.9242C23.0351 15.4883 23.5026 15.1069 23.9976 14.7527C24.6301 14.3169 25.2626 13.9354 25.8951 13.5813C27.2151 12.9002 28.5351 13.0092 29.8001 13.6358C30.6801 14.0717 31.4226 14.671 32.0001 15.4611C33.1276 16.9322 33.7601 18.5396 33.6776 20.3649ZM23.9426 21.2094C23.8601 21.3184 23.7501 21.4273 23.7501 21.5363C23.6951 21.8632 23.6401 22.2174 23.6401 22.5716C23.6126 23.0619 23.8601 23.4706 24.2451 23.7975C24.6576 24.1244 25.1251 24.3151 25.6751 24.3424C26.4451 24.3969 27.1326 24.2062 27.7926 23.852C30.2401 22.4626 30.5976 19.2206 28.5351 17.3409C28.3701 17.2046 28.1501 17.1501 27.9851 17.0684C27.2701 17.3409 27.0776 17.6133 27.0776 18.1854C27.0776 18.4851 27.1326 18.7847 27.2701 19.0572C27.4351 19.3296 27.6001 19.5748 27.7651 19.8472C27.9851 20.2559 28.1226 20.6918 28.1226 21.2094C28.0676 22.2446 27.1326 22.9257 26.1151 22.7078C25.5101 22.5716 24.9876 22.2991 24.5476 21.836C24.3551 21.618 24.2726 21.3184 23.9426 21.2094ZM51.3656 20.3649C51.5306 23.0892 49.7156 25.6773 47.9556 26.7943C46.6906 27.6116 45.2881 28.1837 43.7756 28.1837C41.3831 28.2109 39.4581 27.2574 38.1656 25.1869C37.5331 24.1517 37.3406 23.0074 37.4781 21.8087C37.7531 19.5203 38.7706 17.586 40.3106 15.9242C40.7231 15.4883 41.1906 15.1069 41.6856 14.7527C42.3181 14.3169 42.9506 13.9354 43.5831 13.5813C44.9031 12.9002 46.2231 13.0092 47.4881 13.6358C48.3681 14.0717 49.1106 14.671 49.6881 15.4611C50.8156 16.9322 51.4481 18.5396 51.3656 20.3649ZM41.6306 21.2094C41.5481 21.3184 41.4381 21.4273 41.4381 21.5363C41.3831 21.8632 41.3281 22.2174 41.3281 22.5716C41.3006 23.0619 41.5481 23.4706 41.9331 23.7975C42.3456 24.1244 42.8131 24.3151 43.3631 24.3424C44.1331 24.3969 44.8206 24.2062 45.4806 23.852C47.9281 22.4626 48.2856 19.2206 46.2231 17.3409C46.0581 17.2046 45.8381 17.1501 45.6731 17.0684C44.9581 17.3409 44.7656 17.6133 44.7656 18.1854C44.7656 18.4851 44.8206 18.7847 44.9581 19.0572C45.1231 19.3296 45.2881 19.5748 45.4531 19.8472C45.6731 20.2559 45.8106 20.6918 45.8106 21.2094C45.7556 22.2446 44.8206 22.9257 43.8031 22.7078C43.1981 22.5716 42.6756 22.2991 42.2356 21.836C42.0431 21.618 41.9606 21.3184 41.6306 21.2094ZM57.0261 25.2414C56.9161 24.3696 56.8061 23.5523 56.6961 22.735C56.6961 22.6533 56.6686 22.5716 56.6686 22.4898C56.6136 20.8007 56.3386 19.1117 56.3936 17.4226C56.4211 17.0412 56.3936 16.6598 56.3661 16.3329C56.1461 15.897 55.7886 15.7335 55.4861 15.4611C55.2661 15.2704 54.9911 15.1069 54.7986 14.889C54.3311 14.3713 54.1386 13.772 54.3586 13.0637C54.6061 12.3008 55.1561 11.865 55.9536 11.7287C56.1186 11.7015 56.3111 11.7015 56.4761 11.756C56.8611 11.8377 57.2186 12.0012 57.5211 12.2464C59.3911 13.663 61.3711 14.9707 63.1586 16.4963C64.6436 17.7767 66.1286 19.0572 67.3661 20.5828C67.9711 21.2911 68.4661 22.0267 68.9061 22.844C69.1261 23.3071 69.2911 23.7975 69.4011 24.3151C69.6211 25.3776 69.3186 26.2766 68.6311 27.0939C68.2461 27.5843 67.7786 27.9385 67.2011 28.2109C66.5686 28.5378 65.9086 28.7285 65.2211 28.892C62.8286 29.4096 60.3811 29.5458 57.9336 29.4369C57.4386 29.4096 56.9711 29.3279 56.5311 29.1372C55.1286 28.5651 54.8536 26.7943 56.0636 25.868C56.3111 25.65 56.6411 25.4866 57.0261 25.2414ZM60.4361 19.4113C60.2986 19.602 60.3536 19.82 60.3536 20.0379C60.3261 20.719 60.7386 24.2879 60.9311 25.1869C60.9861 25.3776 61.0961 25.5138 61.2886 25.5683C61.8111 25.5411 62.3336 25.5138 62.8286 25.4321C63.6261 25.3231 64.3961 25.2141 65.1386 24.9417C65.3311 24.8872 65.4411 24.7783 65.4686 24.5331C64.7536 23.0892 63.5436 22.0267 62.3886 20.9097C61.1786 19.7655 61.0961 19.711 60.4361 19.4113ZM76.9492 21.2094C77.3067 21.2911 77.5817 21.2366 77.8842 21.1277C78.9567 20.7463 79.9467 20.1741 80.8267 19.4658C82.1467 18.3489 83.3017 17.1229 84.2642 15.7335C84.5117 15.3793 84.7042 14.9707 84.9242 14.5893C85.0892 14.2351 85.2542 13.881 85.4467 13.554C85.6117 13.2816 85.7767 13.0092 85.9692 12.7912C86.9867 11.6743 88.7467 12.0557 89.2417 13.4996C89.2967 13.663 89.3242 13.8265 89.3517 13.9899C89.3242 14.6165 89.0767 15.1886 88.7742 15.7063C87.9217 17.0957 87.3717 18.594 86.7942 20.0924C85.3917 23.6613 84.2092 27.2846 83.3292 30.9897C82.9442 32.5971 82.5867 34.2044 82.3667 35.839C82.3117 36.1932 82.2292 36.5201 82.0917 36.847C81.8442 37.3919 81.2117 38.0185 80.3317 37.964C79.5067 37.9095 78.9292 37.5281 78.6267 36.7653C78.5442 36.5746 78.5167 36.3566 78.4342 36.1114C78.7367 33.823 79.2042 31.5073 79.7817 29.2462C80.1942 27.6933 80.6617 26.1677 81.1292 24.642C81.1567 24.4786 81.1842 24.2879 81.2117 24.1244C81.2117 24.0699 81.1017 24.0154 81.0192 23.961C80.6892 24.0154 80.3867 24.2334 80.0842 24.3696C79.3142 24.6965 78.5167 24.9417 77.6917 25.1052C76.8667 25.2686 76.0417 25.2686 75.2442 24.9417C74.1167 24.4786 73.3742 23.6885 73.0717 22.4898C72.8792 21.6998 72.8517 20.8825 72.9617 20.0652C73.3192 17.3136 74.1992 14.7527 75.3267 12.2464C75.5467 11.756 75.7942 11.3201 76.1517 10.9115C76.7292 10.2304 77.7467 10.0669 78.5442 10.5028C79.3142 10.9387 79.6992 11.9194 79.3692 12.7367C79.2867 12.9819 79.1492 13.2271 79.0392 13.4451C78.0492 15.3521 77.3617 17.3681 76.9492 19.4658C76.8667 19.929 76.8392 20.3921 76.8117 20.8825C76.8117 20.9914 76.9217 21.1004 76.9492 21.2094ZM115.948 19.5476C115.728 19.5748 115.48 19.5476 115.232 19.6293C114.16 19.9017 113.142 19.6838 112.125 19.3296C111.685 19.1661 111.272 18.9482 110.832 18.7303C110.667 18.6485 110.53 18.5668 110.31 18.6213C110.282 18.7575 110.227 18.921 110.227 19.1117C110.2 19.6293 110.227 20.1469 110.2 20.6645C110.062 22.5988 110.007 24.5603 109.705 26.4946C109.622 26.9577 109.512 27.4209 109.32 27.8567C108.825 28.9465 107.395 29.3006 106.432 28.5923C106.02 28.3199 105.772 27.9112 105.69 27.4209C105.662 27.1484 105.635 26.9032 105.662 26.6308C105.69 24.7783 105.662 22.8985 105.772 21.0459C105.882 19.4931 105.91 17.9402 106.02 16.3601C106.047 15.6245 106.157 14.9162 106.24 14.1806C106.35 13.3089 106.817 12.6278 107.532 12.1646C108.165 11.756 108.852 11.7832 109.54 12.1101C109.897 12.3008 110.172 12.5733 110.42 12.9002C110.75 13.3361 111.08 13.7992 111.41 14.2624C111.85 14.8072 112.372 15.2704 113.005 15.57C113.17 15.6518 113.335 15.7335 113.5 15.788C114.407 16.0604 115.26 15.788 115.81 14.9979C116.14 14.5348 116.332 14.0172 116.442 13.4451C116.497 13.1999 116.497 12.9274 116.58 12.6823C116.8 12.0284 117.24 11.5653 117.927 11.4018C119.192 11.0749 120.292 11.9194 120.347 13.2544C120.347 13.3361 120.347 13.4451 120.32 13.5268C120.155 14.5348 120.21 15.5973 120.127 16.6325C119.935 19.0572 120.017 21.4818 119.99 23.9065C119.962 24.6965 119.99 25.4593 120.182 26.2221C120.265 26.5218 120.237 26.8487 120.237 27.1484C120.237 27.4481 120.127 27.7205 119.935 27.993C119.385 28.7558 118.34 28.9465 117.46 28.4833C117.02 28.2382 116.745 27.8567 116.552 27.4209C116.36 26.876 116.222 26.3311 116.222 25.759C116.222 25.0779 116.195 24.3696 116.195 23.6885C116.167 22.4626 116.195 21.2639 116.195 20.0379C116.195 19.8745 116.168 19.711 115.948 19.5476ZM138.355 20.3649C138.52 23.0892 136.705 25.6773 134.945 26.7943C133.68 27.6116 132.278 28.1837 130.765 28.1837C128.373 28.2109 126.448 27.2574 125.155 25.1869C124.523 24.1517 124.33 23.0074 124.468 21.8087C124.743 19.5203 125.76 17.586 127.3 15.9242C127.713 15.4883 128.18 15.1069 128.675 14.7527C129.308 14.3169 129.94 13.9354 130.573 13.5813C131.893 12.9002 133.213 13.0092 134.478 13.6358C135.358 14.0717 136.1 14.671 136.678 15.4611C137.805 16.9322 138.438 18.5396 138.355 20.3649ZM128.62 21.2094C128.538 21.3184 128.428 21.4273 128.428 21.5363C128.373 21.8632 128.318 22.2174 128.318 22.5716C128.29 23.0619 128.538 23.4706 128.923 23.7975C129.335 24.1244 129.803 24.3151 130.353 24.3424C131.123 24.3969 131.81 24.2062 132.47 23.852C134.918 22.4626 135.275 19.2206 133.213 17.3409C133.048 17.2046 132.828 17.1501 132.663 17.0684C131.948 17.3409 131.755 17.6133 131.755 18.1854C131.755 18.4851 131.81 18.7847 131.948 19.0572C132.113 19.3296 132.278 19.5748 132.443 19.8472C132.663 20.2559 132.8 20.6918 132.8 21.2094C132.745 22.2446 131.81 22.9257 130.793 22.7078C130.188 22.5716 129.665 22.2991 129.225 21.836C129.033 21.618 128.95 21.3184 128.62 21.2094ZM156.044 20.3649C156.209 23.0892 154.394 25.6773 152.634 26.7943C151.369 27.6116 149.966 28.1837 148.454 28.1837C146.061 28.2109 144.136 27.2574 142.844 25.1869C142.211 24.1517 142.019 23.0074 142.156 21.8087C142.431 19.5203 143.449 17.586 144.989 15.9242C145.401 15.4883 145.869 15.1069 146.364 14.7527C146.996 14.3169 147.629 13.9354 148.261 13.5813C149.581 12.9002 150.901 13.0092 152.166 13.6358C153.046 14.0717 153.789 14.671 154.366 15.4611C155.494 16.9322 156.126 18.5396 156.044 20.3649ZM146.309 21.2094C146.226 21.3184 146.116 21.4273 146.116 21.5363C146.061 21.8632 146.006 22.2174 146.006 22.5716C145.979 23.0619 146.226 23.4706 146.611 23.7975C147.024 24.1244 147.491 24.3151 148.041 24.3424C148.811 24.3969 149.499 24.2062 150.159 23.852C152.606 22.4626 152.964 19.2206 150.901 17.3409C150.736 17.2046 150.516 17.1501 150.351 17.0684C149.636 17.3409 149.444 17.6133 149.444 18.1854C149.444 18.4851 149.499 18.7847 149.636 19.0572C149.801 19.3296 149.966 19.5748 150.131 19.8472C150.351 20.2559 150.489 20.6918 150.489 21.2094C150.434 22.2446 149.499 22.9257 148.481 22.7078C147.876 22.5716 147.354 22.2991 146.914 21.836C146.721 21.618 146.639 21.3184 146.309 21.2094ZM161.704 25.2414C161.594 24.3696 161.484 23.5523 161.374 22.735C161.374 22.6533 161.347 22.5716 161.347 22.4898C161.292 20.8007 161.017 19.1117 161.072 17.4226C161.099 17.0412 161.072 16.6598 161.044 16.3329C160.824 15.897 160.467 15.7335 160.164 15.4611C159.944 15.2704 159.669 15.1069 159.477 14.889C159.009 14.3713 158.817 13.772 159.037 13.0637C159.284 12.3008 159.834 11.865 160.632 11.7287C160.797 11.7015 160.989 11.7015 161.154 11.756C161.539 11.8377 161.897 12.0012 162.199 12.2464C164.069 13.663 166.049 14.9707 167.837 16.4963C169.322 17.7767 170.807 19.0572 172.044 20.5828C172.649 21.2911 173.144 22.0267 173.584 22.844C173.804 23.3071 173.969 23.7975 174.079 24.3151C174.299 25.3776 173.997 26.2766 173.309 27.0939C172.924 27.5843 172.457 27.9385 171.879 28.2109C171.247 28.5378 170.587 28.7285 169.899 28.892C167.507 29.4096 165.059 29.5458 162.612 29.4369C162.117 29.4096 161.649 29.3279 161.209 29.1372C159.807 28.5651 159.532 26.7943 160.742 25.868C160.989 25.65 161.319 25.4866 161.704 25.2414ZM165.114 19.4113C164.977 19.602 165.032 19.82 165.032 20.0379C165.004 20.719 165.417 24.2879 165.609 25.1869C165.664 25.3776 165.774 25.5138 165.967 25.5683C166.489 25.5411 167.012 25.5138 167.507 25.4321C168.304 25.3231 169.074 25.2141 169.817 24.9417C170.009 24.8872 170.119 24.7783 170.147 24.5331C169.432 23.0892 168.222 22.0267 167.067 20.9097C165.857 19.7655 165.774 19.711 165.114 19.4113ZM181.628 21.2094C181.985 21.2911 182.26 21.2366 182.563 21.1277C183.635 20.7463 184.625 20.1741 185.505 19.4658C186.825 18.3489 187.98 17.1229 188.943 15.7335C189.19 15.3793 189.383 14.9707 189.603 14.5893C189.768 14.2351 189.933 13.881 190.125 13.554C190.29 13.2816 190.455 13.0092 190.648 12.7912C191.665 11.6743 193.425 12.0557 193.92 13.4996C193.975 13.663 194.003 13.8265 194.03 13.9899C194.003 14.6165 193.755 15.1886 193.453 15.7063C192.6 17.0957 192.05 18.594 191.473 20.0924C190.07 23.6613 188.888 27.2846 188.008 30.9897C187.623 32.5971 187.265 34.2044 187.045 35.839C186.99 36.1932 186.908 36.5201 186.77 36.847C186.523 37.3919 185.89 38.0185 185.01 37.964C184.185 37.9095 183.608 37.5281 183.305 36.7653C183.223 36.5746 183.195 36.3566 183.113 36.1114C183.415 33.823 183.883 31.5073 184.46 29.2462C184.873 27.6933 185.34 26.1677 185.808 24.642C185.835 24.4786 185.863 24.2879 185.89 24.1244C185.89 24.0699 185.78 24.0154 185.698 23.961C185.368 24.0154 185.065 24.2334 184.763 24.3696C183.993 24.6965 183.195 24.9417 182.37 25.1052C181.545 25.2686 180.72 25.2686 179.923 24.9417C178.795 24.4786 178.053 23.6885 177.75 22.4898C177.558 21.6998 177.53 20.8825 177.64 20.0652C177.998 17.3136 178.878 14.7527 180.005 12.2464C180.225 11.756 180.473 11.3201 180.83 10.9115C181.408 10.2304 182.425 10.0669 183.223 10.5028C183.993 10.9387 184.378 11.9194 184.048 12.7367C183.965 12.9819 183.828 13.2271 183.718 13.4451C182.728 15.3521 182.04 17.3681 181.628 19.4658C181.545 19.929 181.518 20.3921 181.49 20.8825C181.49 20.9914 181.6 21.1004 181.628 21.2094Z" fill="black"/>
<path d="M137.178 32.8557C137.178 37.0066 141.766 39.4505 145.694 39.2776C148.062 39.1733 149.397 35.8336 150.142 33.989" stroke="#EB6300" stroke-width="3.4" stroke-linecap="round"/>
<path d="M148.998 30.9673C148.998 34.5214 151.529 35.1226 154.718 35.1226" stroke="#EB6300" stroke-width="3.4" stroke-linecap="round"/>
<path d="M28.0918 8.10361C28.6018 3.55644 36.5794 0.428921 40.187 3.49224C41.6926 4.77074 45.3884 8.66409 41.6264 9.5111C40.9312 9.66763 39.9849 9.98442 39.2709 9.69629C36.319 8.5049 39.8095 5.27157 41.103 4.64045C45.9985 2.2517 50.9523 2.74901 54.6749 6.43684" stroke="#EB6300" stroke-width="3.4" stroke-linecap="round"/>
<path d="M217.921 10.2019C214.514 13.8366 211.45 20.0738 210.459 24.9864" stroke="#EB6300" stroke-width="3.4" stroke-linecap="round"/>
<path d="M208.469 33.8567H210.459" stroke="#EB6300" stroke-width="3.4" stroke-linecap="round"/>
<path d="M4.32422 15.9747C7.28434 15.9747 10.2376 15.7732 13.1916 15.7732C14.6365 15.7732 15.9703 15.3704 17.3372 15.3704" stroke="#EB6300" stroke-width="3.4" stroke-linecap="round"/>
<path d="M6.76557 17.3845C5.3707 20.1482 4.63173 23.131 3.51233 26.0012C3.27773 26.6027 3.27068 27.1101 2.90234 27.6575" stroke="#EB6300" stroke-width="3.4" stroke-linecap="round"/>
<path d="M2.29102 21.6149C5.4824 21.6149 8.66046 21.4136 11.8474 21.4136" stroke="#EB6300" stroke-width="3.4" stroke-linecap="round"/>
</svg>
