<svg width="152" height="29" viewBox="0 0 152 29" fill="none" xmlns="http://www.w3.org/2000/svg">
<g clip-path="url(#clip0_84_76774)">
<path d="M23.6154 14.0614C23.7287 15.9425 22.4829 17.7295 21.2749 18.5008C20.4067 19.0651 19.444 19.4601 18.4059 19.4601C16.7638 19.479 15.4425 18.8206 14.5554 17.391C14.1213 16.6761 13.9892 15.8861 14.0835 15.0584C14.2723 13.4783 14.9707 12.1427 16.0277 10.9953C16.3108 10.6943 16.6317 10.431 16.9714 10.1864C17.4055 9.88544 17.8397 9.62209 18.2738 9.37755C19.1798 8.90728 20.0858 8.98252 20.954 9.41517C21.558 9.71614 22.0677 10.13 22.464 10.6755C23.2379 11.6913 23.672 12.8011 23.6154 14.0614ZM16.9337 14.6446C16.877 14.7198 16.8015 14.7951 16.8015 14.8703C16.7638 15.096 16.726 15.3406 16.726 15.5851C16.7072 15.9237 16.877 16.2059 17.1413 16.4316C17.4244 16.6573 17.7453 16.789 18.1228 16.8078C18.6513 16.8454 19.1232 16.7138 19.5762 16.4692C21.256 15.5099 21.5014 13.2714 20.0858 11.9734C19.9725 11.8794 19.8215 11.8418 19.7083 11.7853C19.2175 11.9734 19.0854 12.1615 19.0854 12.5566C19.0854 12.7635 19.1232 12.9704 19.2175 13.1585C19.3308 13.3466 19.444 13.5159 19.5573 13.704C19.7083 13.9862 19.8027 14.2872 19.8027 14.6446C19.7649 15.3594 19.1232 15.8297 18.4248 15.6792C18.0095 15.5851 17.6509 15.397 17.3489 15.0772C17.2168 14.9267 17.1602 14.7198 16.9337 14.6446ZM35.7558 14.0614C35.8691 15.9425 34.6233 17.7295 33.4153 18.5008C32.5471 19.0651 31.5844 19.4601 30.5463 19.4601C28.9042 19.479 27.5829 18.8206 26.6958 17.391C26.2617 16.6761 26.1296 15.8861 26.2239 15.0584C26.4127 13.4783 27.1111 12.1427 28.1681 10.9953C28.4512 10.6943 28.7721 10.431 29.1118 10.1864C29.5459 9.88544 29.9801 9.62209 30.4142 9.37755C31.3202 8.90728 32.2262 8.98252 33.0944 9.41517C33.6984 9.71614 34.2081 10.13 34.6044 10.6755C35.3783 11.6913 35.8124 12.8011 35.7558 14.0614ZM29.0741 14.6446C29.0174 14.7198 28.9419 14.7951 28.9419 14.8703C28.9042 15.096 28.8664 15.3406 28.8664 15.5851C28.8476 15.9237 29.0174 16.2059 29.2817 16.4316C29.5648 16.6573 29.8857 16.789 30.2632 16.8078C30.7917 16.8454 31.2636 16.7138 31.7166 16.4692C33.3964 15.5099 33.6418 13.2714 32.2262 11.9734C32.1129 11.8794 31.9619 11.8418 31.8487 11.7853C31.3579 11.9734 31.2258 12.1615 31.2258 12.5566C31.2258 12.7635 31.2636 12.9704 31.3579 13.1585C31.4712 13.3466 31.5844 13.5159 31.6977 13.704C31.8487 13.9862 31.9431 14.2872 31.9431 14.6446C31.9053 15.3594 31.2636 15.8297 30.5652 15.6792C30.1499 15.5851 29.7913 15.397 29.4893 15.0772C29.3572 14.9267 29.3006 14.7198 29.0741 14.6446ZM39.641 17.4286C39.5655 16.8266 39.49 16.2623 39.4145 15.698C39.4145 15.6415 39.3956 15.5851 39.3956 15.5287C39.3579 14.3624 39.1691 13.1961 39.2069 12.0299C39.2257 11.7665 39.2069 11.5032 39.188 11.2774C39.037 10.9765 38.7916 10.8636 38.584 10.6755C38.433 10.5438 38.2442 10.431 38.1121 10.2805C37.7912 9.92306 37.6591 9.50922 37.8101 9.02014C37.98 8.49344 38.3575 8.19247 38.9049 8.09841C39.0181 8.0796 39.1502 8.0796 39.2635 8.11722C39.5277 8.17365 39.7731 8.28652 39.9807 8.45582C41.2642 9.43398 42.6232 10.3369 43.8501 11.3903C44.8694 12.2744 45.8886 13.1585 46.738 14.2119C47.1532 14.701 47.493 15.2089 47.795 15.7732C47.946 16.093 48.0592 16.4316 48.1347 16.789C48.2857 17.5226 48.0781 18.1434 47.6062 18.7077C47.342 19.0463 47.0211 19.2908 46.6247 19.479C46.1906 19.7047 45.7376 19.8364 45.2657 19.9492C43.6236 20.3066 41.9437 20.4007 40.2639 20.3254C39.9241 20.3066 39.6032 20.2502 39.3012 20.1185C38.3386 19.7235 38.1499 18.5008 38.9804 17.8612C39.1502 17.7107 39.3767 17.5979 39.641 17.4286ZM41.9815 13.4031C41.8871 13.5347 41.9249 13.6852 41.9249 13.8357C41.906 14.306 42.1891 16.7702 42.3212 17.391C42.359 17.5226 42.4345 17.6167 42.5666 17.6543C42.9252 17.6355 43.2839 17.6167 43.6236 17.5602C44.171 17.485 44.6995 17.4098 45.2091 17.2217C45.3412 17.184 45.4167 17.1088 45.4356 16.9395C44.9449 15.9425 44.1144 15.2089 43.3216 14.4377C42.4911 13.6476 42.4345 13.61 41.9815 13.4031ZM53.3154 14.6446C53.5608 14.701 53.7496 14.6634 53.9572 14.5881C54.6933 14.3248 55.3728 13.9298 55.9768 13.4407C56.8828 12.6694 57.6756 11.823 58.3362 10.8636C58.5061 10.6191 58.6382 10.3369 58.7892 10.0735C58.9025 9.82901 59.0157 9.58447 59.1478 9.35874C59.2611 9.17063 59.3743 8.98252 59.5065 8.83203C60.2048 8.06079 61.4128 8.32414 61.7526 9.32111C61.7903 9.43398 61.8092 9.54684 61.8281 9.65971C61.8092 10.0924 61.6393 10.4874 61.4317 10.8448C60.8466 11.8041 60.4691 12.8387 60.0727 13.8733C59.1101 16.3375 58.2985 18.8394 57.6945 21.3977C57.4302 22.5075 57.1848 23.6173 57.0338 24.746C56.9961 24.9905 56.9394 25.2162 56.8451 25.442C56.6752 25.8182 56.2411 26.2508 55.6371 26.2132C55.0708 26.1756 54.6745 25.9122 54.4668 25.3855C54.4102 25.2539 54.3913 25.1034 54.3347 24.9341C54.5423 23.354 54.8632 21.7551 55.2596 20.1938C55.5427 19.1215 55.8636 18.0681 56.1845 17.0147C56.2033 16.9019 56.2222 16.7702 56.2411 16.6573C56.2411 16.6197 56.1656 16.5821 56.109 16.5445C55.8825 16.5821 55.6748 16.7326 55.4672 16.8266C54.9387 17.0524 54.3913 17.2217 53.8251 17.3345C53.2588 17.4474 52.6926 17.4474 52.1452 17.2217C51.3713 16.9019 50.8617 16.3564 50.6541 15.5287C50.5219 14.9832 50.5031 14.4188 50.5786 13.8545C50.824 11.9546 51.4279 10.1864 52.2018 8.45582C52.3528 8.11722 52.5227 7.81627 52.7681 7.53411C53.1645 7.06384 53.8628 6.95097 54.4102 7.25195C54.9387 7.55292 55.2029 8.23009 54.9764 8.79441C54.9198 8.96371 54.8255 9.13301 54.75 9.28349C54.0705 10.6002 53.5986 11.9922 53.3154 13.4407C53.2588 13.7605 53.24 14.0802 53.2211 14.4188C53.2211 14.4941 53.2966 14.5693 53.3154 14.6446ZM80.0825 13.4971C79.9315 13.5159 79.7616 13.4971 79.5917 13.5535C78.8553 13.7417 78.1569 13.5912 77.4585 13.3466C77.1565 13.2338 76.8734 13.0833 76.5714 12.9328C76.4582 12.8764 76.3638 12.8199 76.2128 12.8575C76.1939 12.9516 76.1562 13.0645 76.1562 13.1961C76.1373 13.5535 76.1562 13.911 76.1373 14.2684C76.0429 15.6039 76.0052 16.9583 75.7975 18.2939C75.7409 18.6137 75.6654 18.9334 75.5333 19.2344C75.1935 19.9868 74.212 20.2314 73.5514 19.7423C73.2683 19.5542 73.0984 19.272 73.0418 18.9334C73.0229 18.7453 73.004 18.576 73.0229 18.3879C73.0418 17.1088 73.0229 15.8108 73.0984 14.5317C73.1739 13.4595 73.1928 12.3873 73.2683 11.2962C73.2872 10.7884 73.3627 10.2993 73.4193 9.79138C73.4948 9.18944 73.8157 8.71917 74.3064 8.39938C74.7405 8.11722 75.2124 8.13603 75.6843 8.36176C75.9297 8.49344 76.1184 8.68155 76.2883 8.90728C76.5148 9.20825 76.7413 9.52803 76.9678 9.84782C77.2698 10.224 77.6284 10.5438 78.0625 10.7507C78.1758 10.8072 78.289 10.8636 78.4023 10.9012C79.0252 11.0893 79.6106 10.9012 79.9881 10.3557C80.2146 10.0359 80.3467 9.67852 80.4222 9.28349C80.46 9.11419 80.46 8.92609 80.5166 8.75679C80.6676 8.30533 80.9696 7.98555 81.4415 7.87268C82.3097 7.64698 83.0647 8.23009 83.1025 9.15182C83.1025 9.20825 83.1025 9.28349 83.0836 9.33992C82.9704 10.0359 83.0081 10.7695 82.9515 11.4844C82.8194 13.1585 82.876 14.8327 82.8571 16.5068C82.8382 17.0524 82.8571 17.5791 82.9892 18.1058C83.0459 18.3127 83.027 18.5384 83.027 18.7453C83.027 18.9522 82.9515 19.1404 82.8194 19.3285C82.4419 19.8552 81.7246 19.9868 81.1206 19.6671C80.8186 19.4978 80.6299 19.2344 80.4977 18.9334C80.3656 18.5572 80.2712 18.181 80.2712 17.786C80.2712 17.3157 80.2524 16.8266 80.2524 16.3564C80.2335 15.5099 80.2524 14.6822 80.2524 13.8357C80.2524 13.7228 80.2335 13.61 80.0825 13.4971ZM95.4625 14.0614C95.5757 15.9425 94.33 17.7295 93.122 18.5008C92.2537 19.0651 91.2911 19.4601 90.253 19.4601C88.6108 19.479 87.2896 18.8206 86.4025 17.391C85.9683 16.6761 85.8362 15.8861 85.9306 15.0584C86.1193 13.4783 86.8177 12.1427 87.8747 10.9953C88.1578 10.6943 88.4787 10.431 88.8185 10.1864C89.2526 9.88544 89.6867 9.62209 90.1208 9.37755C91.0268 8.90728 91.9328 8.98252 92.8011 9.41517C93.4051 9.71614 93.9147 10.13 94.3111 10.6755C95.085 11.6913 95.5191 12.8011 95.4625 14.0614ZM88.7807 14.6446C88.7241 14.7198 88.6486 14.7951 88.6486 14.8703C88.6108 15.096 88.5731 15.3406 88.5731 15.5851C88.5542 15.9237 88.7241 16.2059 88.9883 16.4316C89.2715 16.6573 89.5923 16.789 89.9698 16.8078C90.4983 16.8454 90.9702 16.7138 91.4232 16.4692C93.1031 15.5099 93.3485 13.2714 91.9328 11.9734C91.8196 11.8794 91.6686 11.8418 91.5553 11.7853C91.0646 11.9734 90.9325 12.1615 90.9325 12.5566C90.9325 12.7635 90.9702 12.9704 91.0646 13.1585C91.1778 13.3466 91.2911 13.5159 91.4043 13.704C91.5553 13.9862 91.6497 14.2872 91.6497 14.6446C91.612 15.3594 90.9702 15.8297 90.2718 15.6792C89.8566 15.5851 89.498 15.397 89.196 15.0772C89.0638 14.9267 89.0072 14.7198 88.7807 14.6446ZM107.603 14.0614C107.716 15.9425 106.471 17.7295 105.263 18.5008C104.394 19.0651 103.432 19.4601 102.394 19.4601C100.751 19.479 99.4301 18.8206 98.543 17.391C98.1089 16.6761 97.9768 15.8861 98.0712 15.0584C98.2599 13.4783 98.9583 12.1427 100.015 10.9953C100.298 10.6943 100.619 10.431 100.959 10.1864C101.393 9.88544 101.827 9.62209 102.261 9.37755C103.167 8.90728 104.073 8.98252 104.942 9.41517C105.546 9.71614 106.055 10.13 106.452 10.6755C107.226 11.6913 107.66 12.8011 107.603 14.0614ZM100.921 14.6446C100.865 14.7198 100.789 14.7951 100.789 14.8703C100.751 15.096 100.714 15.3406 100.714 15.5851C100.695 15.9237 100.865 16.2059 101.129 16.4316C101.412 16.6573 101.733 16.789 102.11 16.8078C102.639 16.8454 103.111 16.7138 103.564 16.4692C105.244 15.5099 105.489 13.2714 104.073 11.9734C103.96 11.8794 103.809 11.8418 103.696 11.7853C103.205 11.9734 103.073 12.1615 103.073 12.5566C103.073 12.7635 103.111 12.9704 103.205 13.1585C103.318 13.3466 103.432 13.5159 103.545 13.704C103.696 13.9862 103.79 14.2872 103.79 14.6446C103.753 15.3594 103.111 15.8297 102.412 15.6792C101.997 15.5851 101.639 15.397 101.337 15.0772C101.204 14.9267 101.148 14.7198 100.921 14.6446ZM111.488 17.4286C111.413 16.8266 111.337 16.2623 111.262 15.698C111.262 15.6415 111.243 15.5851 111.243 15.5287C111.205 14.3624 111.016 13.1961 111.054 12.0299C111.073 11.7665 111.054 11.5032 111.035 11.2774C110.884 10.9765 110.639 10.8636 110.431 10.6755C110.28 10.5438 110.091 10.431 109.959 10.2805C109.638 9.92306 109.506 9.50922 109.657 9.02014C109.827 8.49344 110.205 8.19247 110.752 8.09841C110.865 8.0796 110.997 8.0796 111.111 8.11722C111.375 8.17365 111.62 8.28652 111.828 8.45582C113.111 9.43398 114.47 10.3369 115.697 11.3903C116.716 12.2744 117.736 13.1585 118.585 14.2119C119 14.701 119.34 15.2089 119.642 15.7732C119.793 16.093 119.906 16.4316 119.982 16.789C120.133 17.5226 119.925 18.1434 119.453 18.7077C119.189 19.0463 118.868 19.2908 118.472 19.479C118.038 19.7047 117.585 19.8364 117.113 19.9492C115.471 20.3066 113.791 20.4007 112.111 20.3254C111.771 20.3066 111.45 20.2502 111.148 20.1185C110.186 19.7235 109.997 18.5008 110.827 17.8612C110.997 17.7107 111.224 17.5979 111.488 17.4286ZM113.829 13.4031C113.734 13.5347 113.772 13.6852 113.772 13.8357C113.753 14.306 114.036 16.7702 114.168 17.391C114.206 17.5226 114.282 17.6167 114.414 17.6543C114.772 17.6355 115.131 17.6167 115.471 17.5602C116.018 17.485 116.547 17.4098 117.056 17.2217C117.188 17.184 117.264 17.1088 117.283 16.9395C116.792 15.9425 115.962 15.2089 115.169 14.4377C114.338 13.6476 114.282 13.61 113.829 13.4031ZM125.163 14.6446C125.408 14.701 125.597 14.6634 125.805 14.5881C126.541 14.3248 127.22 13.9298 127.824 13.4407C128.73 12.6694 129.523 11.823 130.184 10.8636C130.354 10.6191 130.486 10.3369 130.637 10.0735C130.75 9.82901 130.863 9.58447 130.995 9.35874C131.109 9.17063 131.222 8.98252 131.354 8.83203C132.052 8.06079 133.26 8.32414 133.6 9.32111C133.638 9.43398 133.657 9.54684 133.676 9.65971C133.657 10.0924 133.487 10.4874 133.279 10.8448C132.694 11.8041 132.317 12.8387 131.92 13.8733C130.958 16.3375 130.146 18.8394 129.542 21.3977C129.278 22.5075 129.032 23.6173 128.881 24.746C128.844 24.9905 128.787 25.2162 128.693 25.442C128.523 25.8182 128.089 26.2508 127.485 26.2132C126.918 26.1756 126.522 25.9122 126.314 25.3855C126.258 25.2539 126.239 25.1034 126.182 24.9341C126.39 23.354 126.711 21.7551 127.107 20.1938C127.39 19.1215 127.711 18.0681 128.032 17.0147C128.051 16.9019 128.07 16.7702 128.089 16.6573C128.089 16.6197 128.013 16.5821 127.957 16.5445C127.73 16.5821 127.522 16.7326 127.315 16.8266C126.786 17.0524 126.239 17.2217 125.673 17.3345C125.106 17.4474 124.54 17.4474 123.993 17.2217C123.219 16.9019 122.709 16.3564 122.502 15.5287C122.37 14.9832 122.351 14.4188 122.426 13.8545C122.672 11.9546 123.276 10.1864 124.049 8.45582C124.2 8.11722 124.37 7.81627 124.616 7.53411C125.012 7.06384 125.71 6.95097 126.258 7.25195C126.786 7.55292 127.051 8.23009 126.824 8.79441C126.767 8.96371 126.673 9.13301 126.598 9.28349C125.918 10.6002 125.446 11.9922 125.163 13.4407C125.106 13.7605 125.088 14.0802 125.069 14.4188C125.069 14.4941 125.144 14.5693 125.163 14.6446Z" fill="black"/>
<path d="M94.6523 22.686C94.6523 25.5521 97.8013 27.2396 100.497 27.1202C102.123 27.0482 103.039 24.7422 103.55 23.4686" stroke="#EB6300" stroke-width="2.4" stroke-linecap="round"/>
<path d="M102.766 21.3823C102.766 23.8364 104.503 24.2514 106.692 24.2514" stroke="#EB6300" stroke-width="2.4" stroke-linecap="round"/>
<path d="M19.7812 5.59517C20.1313 2.45546 25.6069 0.295979 28.0829 2.41112C29.1164 3.2939 31.653 5.98217 29.0709 6.56701C28.5938 6.67509 27.9442 6.89383 27.4542 6.69488C25.4281 5.87225 27.8239 3.63971 28.7116 3.20394C32.0718 1.55457 35.4719 1.89794 38.0269 4.44431" stroke="#EB6300" stroke-width="2.4" stroke-linecap="round"/>
<path d="M150.073 7.04395C147.734 9.55362 145.631 13.8603 144.951 17.2523" stroke="#EB6300" stroke-width="2.4" stroke-linecap="round"/>
<path d="M143.586 23.3774H144.952" stroke="#EB6300" stroke-width="2.4" stroke-linecap="round"/>
<path d="M3.46875 11.0301C5.50047 11.0301 7.52746 10.891 9.55499 10.891C10.5467 10.891 11.4622 10.6128 12.4004 10.6128" stroke="#EB6300" stroke-width="2.4" stroke-linecap="round"/>
<path d="M5.14376 12.0034C4.18638 13.9117 3.67917 15.9712 2.91086 17.953C2.74984 18.3684 2.745 18.7187 2.49219 19.0967" stroke="#EB6300" stroke-width="2.4" stroke-linecap="round"/>
<path d="M2.07227 14.9247C4.26272 14.9247 6.44402 14.7856 8.63141 14.7856" stroke="#EB6300" stroke-width="2.4" stroke-linecap="round"/>
</g>
<defs>
<clipPath id="clip0_84_76774">
<rect width="151" height="29" fill="white" transform="translate(0.5)"/>
</clipPath>
</defs>
</svg>
