<svg width="16" height="16" viewBox="0 0 16 16" fill="none" xmlns="http://www.w3.org/2000/svg">
<path d="M8 4.125C7.53027 4.125 7.07109 4.26429 6.68052 4.52526C6.28995 4.78623 5.98554 5.15715 5.80579 5.59113C5.62603 6.0251 5.57899 6.50263 5.67063 6.96334C5.76227 7.42404 5.98847 7.84723 6.32062 8.17938C6.65277 8.51153 7.07596 8.73772 7.53666 8.82936C7.99737 8.921 8.4749 8.87397 8.90887 8.69421C9.34285 8.51446 9.71377 8.21005 9.97474 7.81948C10.2357 7.42891 10.375 6.96973 10.375 6.5C10.375 5.87011 10.1248 5.26602 9.67938 4.82062C9.23398 4.37522 8.62989 4.125 8 4.125ZM8 8.125C7.67861 8.125 7.36443 8.0297 7.0972 7.85114C6.82997 7.67258 6.62169 7.41879 6.4987 7.12186C6.3757 6.82493 6.34352 6.4982 6.40622 6.18298C6.46892 5.86776 6.62369 5.57821 6.85095 5.35095C7.07821 5.12369 7.36776 4.96892 7.68298 4.90622C7.9982 4.84352 8.32493 4.8757 8.62186 4.9987C8.91879 5.12169 9.17258 5.32997 9.35114 5.5972C9.5297 5.86443 9.625 6.17861 9.625 6.5C9.625 6.93098 9.4538 7.3443 9.14905 7.64905C8.8443 7.95379 8.43098 8.125 8 8.125ZM8 1.125C6.57497 1.12665 5.20878 1.69348 4.20113 2.70113C3.19348 3.70878 2.62665 5.07497 2.625 6.5C2.625 8.43188 3.52125 10.4838 5.21688 12.4338C5.9822 13.3182 6.84353 14.1148 7.785 14.8088C7.84802 14.8529 7.92308 14.8765 8 14.8765C8.07692 14.8765 8.15198 14.8529 8.215 14.8088C9.15647 14.1148 10.0178 13.3182 10.7831 12.4338C12.4788 10.4838 13.375 8.43375 13.375 6.5C13.3733 5.07497 12.8065 3.70878 11.7989 2.70113C10.7912 1.69348 9.42503 1.12665 8 1.125ZM8 14.0319C7.0625 13.3081 3.375 10.2262 3.375 6.5C3.375 5.27337 3.86228 4.09699 4.72963 3.22963C5.59699 2.36228 6.77337 1.875 8 1.875C9.22663 1.875 10.403 2.36228 11.2704 3.22963C12.1377 4.09699 12.625 5.27337 12.625 6.5C12.625 10.2262 8.9375 13.3081 8 14.0319Z" fill="#707070"/>
</svg>
