<svg width="33" height="24" viewBox="0 0 33 24" fill="none" xmlns="http://www.w3.org/2000/svg">
<path d="M16.8698 2.53418C18.073 2.49395 19.2606 2.77121 20.4203 3.06659C20.5289 3.13904 21.0063 3.27016 21.1097 3.34925C21.1905 3.41107 21.298 3.45179 21.3879 3.49581C21.7017 3.6496 22.0183 3.79749 22.3361 3.94298C23.0298 4.26064 23.7641 4.55316 24.373 5.02277C24.6571 5.24187 25.0135 5.52495 24.8441 5.91113C24.709 6.21923 24.4747 6.49077 24.2698 6.75462C24.0499 7.03784 23.7231 7.34783 23.6835 7.72373C23.6337 8.19724 23.9784 8.6711 24.2638 9.0099C24.5256 9.32059 24.8077 9.61324 25.0385 9.94911C25.1901 10.1697 25.3668 10.4329 25.4034 10.7059C25.4519 11.0673 25.1781 11.3702 24.9234 11.5852C24.5727 11.8813 24.1256 12.1955 23.6895 12.345C23.3642 12.4565 22.975 12.4691 22.6486 12.354C22.4011 12.2666 22.191 12.0825 21.9667 11.9502C21.4883 11.6678 20.9887 11.4254 20.504 11.1545C19.8965 10.8151 19.2491 10.7517 18.5598 10.7238C17.1305 10.6659 15.5096 10.7941 14.2706 11.5763L14.2679 11.5779C14.1019 11.6827 14.0562 11.7115 14.0687 11.8978C14.0862 12.1603 14.2182 12.4096 14.2466 12.674C14.2763 12.9499 14.1244 12.8406 13.952 12.7832C13.4828 12.6268 12.9915 12.5504 12.5447 12.327C12.1348 12.1221 11.77 11.8303 11.426 11.5314C11.1798 11.3174 10.9492 11.1099 10.762 10.8405C10.4774 10.4309 10.2285 9.95945 10.2176 9.4466C10.2093 9.05709 10.2626 8.75329 10.4091 8.39523C10.5159 8.13405 10.724 7.90635 10.8906 7.68335C11.2501 7.20228 11.5839 6.71054 11.8956 6.19678C12.1132 5.83807 12.3503 5.49755 12.5955 5.15737C12.7665 4.92026 12.9266 4.66819 13.131 4.45745C13.7943 3.77326 14.6852 3.22869 15.5478 2.83029C15.975 2.63294 16.3992 2.54991 16.8698 2.53418Z" fill="#DF0000" stroke="#DF0000" stroke-width="2" stroke-linecap="round"/>
<path d="M26.542 11.6107C26.166 10.8588 25.3917 9.4566 24.9698 8.72916C24.9698 7.63609 25.4512 6.26386 26.4049 5.50105C26.7413 5.23207 27.1363 5.03886 27.5897 4.96039C29.336 4.65814 30.8926 6.42052 31.0968 8.0163C31.2743 9.40469 31.2734 10.5665 29.9326 11.2177C29.1626 11.5917 27.3865 11.6107 26.542 11.6107Z" fill="white"/>
<path d="M26.4049 5.50105C25.8878 4.72537 24.6709 3.91838 23.8933 3.43237C22.6849 2.67713 21.0507 1.04189 19.5423 1.00219C18.3129 0.969841 16.9076 1.29915 15.7878 1.75889C14.2235 2.40117 13.0235 3.19449 11.9752 4.55287C10.939 5.89559 9.50778 7.68487 9.12305 9.38412C9.73523 10.6053 10.441 12.3997 11.6361 13.1438C12.1496 13.4635 12.7325 13.6713 13.3051 13.8557C14.4558 14.226 15.6361 14.4693 16.8331 14.6304C18.2926 14.8267 19.8312 14.9545 21.3033 14.8083C22.1986 14.7195 23.0433 14.4435 23.8787 14.1219C24.8163 13.7609 25.7174 13.2608 26.3508 12.4618C26.6062 12.1396 26.542 12.003 26.542 11.6107M26.4049 5.50105C25.4512 6.26386 24.9698 7.63609 24.9698 8.72916M26.4049 5.50105C26.7413 5.23207 27.1363 5.03886 27.5897 4.96039C29.336 4.65814 30.8926 6.42052 31.0968 8.0163C31.2743 9.40469 31.2734 10.5665 29.9326 11.2177C29.1626 11.5917 27.3865 11.6107 26.542 11.6107M24.9698 8.72916C25.3917 9.4566 26.166 10.8588 26.542 11.6107M24.9698 8.72916C24.6435 8.07657 24.0972 7.36357 23.6602 6.76465" stroke="black" stroke-width="2" stroke-linecap="round"/>
<path d="M1.00235 15.4814C0.899588 13.0837 4.1914 12.0173 6.50251 13.0512C6.50251 12.0699 6.85171 11.3591 7.44887 10.5629C8.54325 9.10369 11.382 10.327 12.4402 11.2323C12.9652 11.6814 13.4897 12.1346 13.8736 12.7166C14.0053 12.9162 14.2264 13.6842 14.4629 13.7788C14.5733 13.823 14.5171 13.5458 14.5648 13.4369C14.6737 13.1879 14.7766 12.9365 14.8849 12.6875C15.4764 11.327 17.2619 11.1593 18.552 11.1449C19.8897 11.1301 21.3259 11.4274 22.0881 12.6147C22.1826 12.7618 22.5504 13.8331 22.7503 13.7206C23.0558 13.5488 23.3045 13.1443 23.6016 12.9348C24.8353 12.0647 26.0226 12.0543 27.4869 12.1636C28.6035 12.2469 30.7579 12.7077 31.1686 13.968C31.5675 15.1922 30.833 16.3019 29.8443 16.9512C29.2584 17.336 28.5042 17.3587 27.8289 17.4314C27.785 17.4361 26.8385 17.4078 27.1231 17.5624C27.9373 18.0043 28.9342 18.7136 29.2041 19.6433C29.4945 20.6437 28.5125 21.9259 27.5597 22.1608C26.1454 22.5094 23.9875 22.3857 22.743 21.5059C21.7768 20.8229 21.827 19.7961 21.3023 18.9011C21.1975 18.7223 21.0913 19.7266 21.0404 19.8616C20.1256 22.2858 16.1674 21.7709 14.3611 21.0403C13.9508 20.8743 13.378 20.528 13.1532 20.1235C13.0631 19.9612 12.9597 19.8299 12.9204 19.6433C12.9061 19.5753 12.7885 18.8886 12.7603 18.9011C12.6691 18.9417 12.6228 19.2601 12.5857 19.345C12.4356 19.6882 12.2197 19.9029 11.9018 20.109C10.4826 21.0288 8.94334 21.5813 7.25969 21.5642C6.12766 21.5526 5.04416 21.3546 4.07281 20.7492C3.35877 20.3043 3.32422 19.9045 3.35977 19.1049C3.37996 18.6504 3.81002 18.0266 4.17468 17.7661C4.50866 17.5275 5.01047 17.3732 4.3784 17.3732C3.19484 17.3732 1.06861 17.0275 1.00235 15.4814Z" fill="white" stroke="black" stroke-width="2" stroke-linecap="round"/>
</svg>
