<svg width="24" height="24" viewBox="0 0 24 24" fill="none" xmlns="http://www.w3.org/2000/svg">
<g clip-path="url(#clip0_1038_81170)">
<path d="M8.55321 10.1132C9.05341 10.6134 9.33441 11.2919 9.33441 11.9992C9.33441 12.7066 9.05341 13.385 8.55321 13.8852C8.05301 14.3854 7.37459 14.6664 6.66721 14.6664C5.95982 14.6664 5.28141 14.3854 4.78121 13.8852C4.28101 13.385 4 12.7066 4 11.9992C4 11.2919 4.28101 10.6134 4.78121 10.1132C5.28141 9.61304 5.95982 9.33203 6.66721 9.33203C7.37459 9.33203 8.05301 9.61304 8.55321 10.1132Z" stroke="#0A0A0A" stroke-width="1.5" stroke-linecap="round" stroke-linejoin="round"/>
<path d="M19.2194 4.78046C19.7196 5.28066 20.0006 5.95907 20.0006 6.66646C20.0006 7.37385 19.7196 8.05226 19.2194 8.55246C18.7192 9.05266 18.0408 9.33367 17.3334 9.33367C16.626 9.33367 15.9476 9.05266 15.4474 8.55246C14.9471 8.05213 14.666 7.37354 14.666 6.66596C14.666 5.95839 14.9471 5.27979 15.4474 4.77946C15.9478 4.27913 16.6264 3.99805 17.3339 3.99805C18.0415 3.99805 18.7201 4.27913 19.2204 4.77946" stroke="#0A0A0A" stroke-width="1.5" stroke-linecap="round" stroke-linejoin="round"/>
<path d="M19.2192 15.4472C19.4669 15.6949 19.6634 15.9889 19.7974 16.3125C19.9314 16.6361 20.0004 16.983 20.0004 17.3332C20.0004 17.6835 19.9314 18.0303 19.7974 18.3539C19.6634 18.6775 19.4669 18.9715 19.2192 19.2192C18.9715 19.4669 18.6775 19.6634 18.3539 19.7974C18.0303 19.9314 17.6835 20.0004 17.3332 20.0004C16.983 20.0004 16.6361 19.9314 16.3125 19.7974C15.9889 19.6634 15.6949 19.4669 15.4472 19.2192C14.947 18.719 14.666 18.0406 14.666 17.3332C14.666 16.6258 14.947 15.9474 15.4472 15.4472C15.9474 14.947 16.6258 14.666 17.3332 14.666C18.0406 14.666 18.719 14.947 19.2192 15.4472" stroke="#0A0A0A" stroke-width="1.5" stroke-linecap="round" stroke-linejoin="round"/>
<path d="M9.03906 10.8096L14.9591 7.84961" stroke="#0A0A0A" stroke-width="1.5" stroke-linecap="round" stroke-linejoin="round"/>
<path d="M9.03906 13.1895L14.9591 16.1495" stroke="#0A0A0A" stroke-width="1.5" stroke-linecap="round" stroke-linejoin="round"/>
</g>
<defs>
<clipPath id="clip0_1038_81170">
<rect width="24" height="24" fill="white"/>
</clipPath>
</defs>
</svg>
