<svg width="16" height="16" viewBox="0 0 16 16" fill="none" xmlns="http://www.w3.org/2000/svg">
<path d="M5.15455 13.8859C4.98891 13.9724 4.80236 14.0107 4.61606 13.9966C4.42975 13.9824 4.25114 13.9163 4.10046 13.8058C3.94979 13.6954 3.83308 13.5449 3.76358 13.3714C3.69407 13.198 3.67455 13.0086 3.70721 12.8246L4.24655 9.73326L1.97588 7.55726C1.83986 7.42755 1.74315 7.26213 1.69684 7.07997C1.65054 6.89781 1.6565 6.70629 1.71405 6.52737C1.77161 6.34844 1.87842 6.18936 2.02224 6.06836C2.16607 5.94736 2.34108 5.86935 2.52721 5.84326L5.67988 5.39259L7.10321 2.55326C7.18595 2.38633 7.31367 2.24582 7.47198 2.14759C7.63029 2.04936 7.8129 1.99731 7.99921 1.99731C8.18552 1.99731 8.36813 2.04936 8.52644 2.14759C8.68476 2.24582 8.81248 2.38633 8.89521 2.55326L10.3185 5.39259L13.4712 5.84326C13.6573 5.86935 13.8324 5.94736 13.9762 6.06836C14.12 6.18936 14.2268 6.34844 14.2844 6.52737C14.3419 6.70629 14.3479 6.89781 14.3016 7.07997C14.2553 7.26213 14.1586 7.42755 14.0225 7.55726L11.7519 9.73326L12.2912 12.8253C12.3239 13.0092 12.3044 13.1987 12.2348 13.3721C12.1653 13.5455 12.0486 13.696 11.898 13.8065C11.7473 13.917 11.5687 13.9831 11.3824 13.9972C11.1961 14.0114 11.0095 13.9731 10.8439 13.8866L7.99921 12.4166L5.15455 13.8859Z" fill="#FFBB00" stroke="#0A0A0A" stroke-width="0.5" stroke-linecap="round" stroke-linejoin="round"/>
</svg>
