<svg width="24" height="24" viewBox="0 0 24 24" fill="none" xmlns="http://www.w3.org/2000/svg">
<path d="M7.7328 20.829C7.48434 20.9587 7.20452 21.0162 6.92506 20.995C6.6456 20.9737 6.37768 20.8746 6.15167 20.7089C5.92566 20.5432 5.7506 20.3174 5.64634 20.0573C5.54208 19.7971 5.5128 19.513 5.5618 19.237L6.3708 14.6L2.9648 11.336C2.76077 11.1414 2.61571 10.8933 2.54624 10.6201C2.47678 10.3468 2.48573 10.0596 2.57206 9.79117C2.65839 9.52279 2.8186 9.28416 3.03434 9.10267C3.25008 8.92117 3.5126 8.80415 3.7918 8.76501L8.5208 8.08901L10.6558 3.83001C10.7799 3.57961 10.9715 3.36886 11.2089 3.22151C11.4464 3.07417 11.7203 2.99609 11.9998 2.99609C12.2793 2.99609 12.5532 3.07417 12.7906 3.22151C13.0281 3.36886 13.2197 3.57961 13.3438 3.83001L15.4788 8.08901L20.2078 8.76501C20.487 8.80415 20.7495 8.92117 20.9653 9.10267C21.181 9.28416 21.3412 9.52279 21.4275 9.79117C21.5139 10.0596 21.5228 10.3468 21.4533 10.6201C21.3839 10.8933 21.2388 11.1414 21.0348 11.336L17.6288 14.6L18.4378 19.238C18.4868 19.514 18.4575 19.7981 18.3532 20.0583C18.249 20.3184 18.0739 20.5442 17.8479 20.7099C17.6219 20.8756 17.354 20.9747 17.0745 20.996C16.7951 21.0172 16.5153 20.9597 16.2668 20.83L11.9998 18.625L7.7328 20.829Z" fill="#FFBB00" stroke="#0A0A0A" stroke-width="0.8" stroke-linecap="round" stroke-linejoin="round"/>
</svg>
